<svg xmlns="http://www.w3.org/2000/svg" width="79.607" height="79.059" viewBox="0 0 79.607 79.059"><defs><style>.a{fill:#c7d40f;}</style></defs><g transform="translate(-16.56 0)"><path class="a" d="M267.365,319.325a2.766,2.766,0,1,0,2.766,2.766A2.769,2.769,0,0,0,267.365,319.325Z" transform="translate(-207.406 -270.945)"/><path class="a" d="M170.145,216.819a3.543,3.543,0,1,0,3.543,3.543A3.547,3.547,0,0,0,170.145,216.819Z" transform="translate(-125.573 -184.159)"/><path class="a" d="M90.146,54.972l-6.778-3.635a26,26,0,0,0,2.741-9.491h4.176v2.541h4.987V34.672H90.285v2.541H86.109a26,26,0,0,0-2.741-9.491l6.778-3.635,1.7,2.738,4.319-2.316-5.9-9.487-4.319,2.316,1.7,2.738-6.785,3.639a29.121,29.121,0,0,0-7.477-6.945L75.484,13.4l2.369,1.271,2.494-4.012L71.289,5.8,68.8,9.813l2.369,1.271-2.089,3.362A31.417,31.417,0,0,0,58.857,11.9V4.633h3.4V0H50.467V4.633h3.4V11.9a31.413,31.413,0,0,0-10.218,2.546l-2.089-3.362,2.369-1.271L41.438,5.8,32.38,10.659l2.494,4.012L37.243,13.4l2.094,3.368a29.126,29.126,0,0,0-7.477,6.945l-6.785-3.639,1.7-2.738-4.319-2.316-5.9,9.487,4.319,2.316,1.7-2.738,6.778,3.635a25.994,25.994,0,0,0-2.741,9.491H22.442V34.672H17.455v9.715h4.987V41.846h4.176a26,26,0,0,0,2.741,9.491l-6.778,3.635-1.7-2.738L16.56,54.551l5.9,9.487,4.319-2.316-1.7-2.738,6.785-3.639a29.123,29.123,0,0,0,7.477,6.945l-2.094,3.368-2.369-1.271L32.38,68.4l9.058,4.858,2.494-4.012-2.369-1.271,2.089-3.362A31.417,31.417,0,0,0,53.87,67.16v7.267h-3.4v4.633H62.26V74.427h-3.4V67.16a31.413,31.413,0,0,0,10.218-2.546l2.089,3.362L68.8,69.246l2.494,4.012L80.347,68.4l-2.494-4.012-2.369,1.271L73.39,62.291a29.123,29.123,0,0,0,7.477-6.945l6.785,3.639-1.7,2.738,4.319,2.316,5.9-9.487-4.319-2.316ZM44.344,43.39a7.573,7.573,0,0,1-7.827-7.271,7.573,7.573,0,0,1,7.827-7.271,7.573,7.573,0,0,1,7.827,7.271A7.573,7.573,0,0,1,44.344,43.39ZM60.012,58.061a6.97,6.97,0,0,1-7.2-6.692,7.224,7.224,0,0,1,14.408,0A6.97,6.97,0,0,1,60.012,58.061Zm6.5-20a6.876,6.876,0,0,1-7.107-6.6,7.126,7.126,0,0,1,14.214,0A6.876,6.876,0,0,1,66.51,38.062Z" transform="translate(0 0)"/><circle class="a" cx="2.645" cy="2.645" r="2.645" transform="translate(63.724 28.961)"/></g></svg>